<svg xmlns="http://www.w3.org/2000/svg" viewBox="0 0 120 120" fill="none">
  <defs>
    <linearGradient id="googleGradient" x1="0%" y1="0%" x2="100%" y2="100%">
      <stop offset="0%" style="stop-color:#4285F4"/>
      <stop offset="25%" style="stop-color:#EA4335"/>
      <stop offset="50%" style="stop-color:#FBBC05"/>
      <stop offset="75%" style="stop-color:#34A853"/>
      <stop offset="100%" style="stop-color:#4285F4"/>
    </linearGradient>
    <mask id="borderMask">
      <rect width="120" height="120" rx="24" fill="white"/>
      <rect x="8" y="8" width="104" height="104" rx="20" fill="black"/>
    </mask>
  </defs>
  <rect width="120" height="120" rx="24" fill="url(#googleGradient)" mask="url(#borderMask)"/>
  <!-- H -->
  <path d="M29.8 38 L29.8 82 L38.2 82 L38.2 56.8 L49.8 56.8 L49.8 82 L58.2 82 L58.2 38 L49.8 38 L49.8 63.2 L38.2 63.2 L38.2 38 Z" fill="white"/>
  <!-- W (flipped M) -->
  <path d="M63.8 38 L63.8 82 L72.2 82 L76.4 59.2 L80.6 82 L89 82 L89 38 L80.6 38 L80.6 64.4 L76.4 45.2 L72.2 64.4 L72.2 38 Z" fill="white" transform="scale(1, -1) translate(0, -120)"/>
</svg>
